<svg width="20" height="18" viewBox="0 0 20 18" fill="none" xmlns="http://www.w3.org/2000/svg">
<g clip-path="url(#clip0_46_5)">
<path fill-rule="evenodd" clip-rule="evenodd" d="M0.25 9C0.25 8.55127 0.613769 8.1875 1.0625 8.1875H18.9375C19.3862 8.1875 19.75 8.55127 19.75 9C19.75 9.44873 19.3862 9.8125 18.9375 9.8125H1.0625C0.613769 9.8125 0.25 9.44873 0.25 9Z" fill="#076C70"/>
<path fill-rule="evenodd" clip-rule="evenodd" d="M11.0505 1.11298C11.3678 0.795675 11.8822 0.795675 12.1995 1.11298L19.512 8.42548C19.8293 8.74278 19.8293 9.25722 19.512 9.57452L12.1995 16.887C11.8822 17.2043 11.3678 17.2043 11.0505 16.887C10.7332 16.5697 10.7332 16.0553 11.0505 15.738L17.7885 9L11.0505 2.26202C10.7332 1.94472 10.7332 1.43028 11.0505 1.11298Z" fill="#076C70"/>
</g>
<defs>
<clipPath id="clip0_46_5">
<rect width="20" height="18" fill="white"/>
</clipPath>
</defs>
</svg>
