<svg width="28" height="20" viewBox="0 0 28 20" fill="none" xmlns="http://www.w3.org/2000/svg">
<path fill-rule="evenodd" clip-rule="evenodd" d="M24.7843 0.597097C25.9817 0.925645 26.9246 1.89371 27.2446 3.12306C27.8261 5.35113 27.8261 10 27.8261 10C27.8261 10 27.8261 14.6487 27.2446 16.8769C26.9246 18.1063 25.9817 19.0744 24.7843 19.4031C22.6145 20 13.913 20 13.913 20C13.913 20 5.21154 20 3.04158 19.4031C1.84427 19.0744 0.901344 18.1063 0.581344 16.8769C0 14.6487 0 10 0 10C0 10 0 5.35113 0.581344 3.12306C0.901344 1.89371 1.84427 0.925645 3.04158 0.597097C5.21154 0 13.913 0 13.913 0C13.913 0 22.6145 0 24.7843 0.597097ZM11.3044 6.08686V14.7825L18.2609 10.4349L11.3044 6.08686Z" fill="white"/>
</svg>
