<svg xmlns="http://www.w3.org/2000/svg" viewBox="0 0 47.25 47.26"><defs><style>.cls-1{fill:#d6251f;}</style></defs><g id="Layer_2" data-name="Layer 2"><g id="Layer_1-2" data-name="Layer 1"><path class="cls-1" d="M26.09,20.25a2.47,2.47,0,1,1-2.46-2.47A2.46,2.46,0,0,1,26.09,20.25Z"/><path class="cls-1" d="M23.62,10.94a9.33,9.33,0,0,0-9.31,9.32c0,8.29,7.23,14.28,9.31,15.83,2.09-1.55,9.32-7.54,9.32-15.83A9.33,9.33,0,0,0,23.62,10.94Zm0,13.82a4.51,4.51,0,1,1,4.5-4.51A4.51,4.51,0,0,1,23.63,24.76Z"/><path class="cls-1" d="M23.62,0A23.63,23.63,0,1,0,47.25,23.63,23.63,23.63,0,0,0,23.62,0Zm5.94,33.34a28.74,28.74,0,0,1-5.38,4.85,1,1,0,0,1-1.11,0,28.74,28.74,0,0,1-5.38-4.85c-3.54-4.09-5.42-8.61-5.42-13.08a11.35,11.35,0,1,1,22.7,0C35,24.73,33.1,29.25,29.56,33.34Z"/></g></g></svg>