<svg xmlns="http://www.w3.org/2000/svg" viewBox="0 0 47.25 47.25"><defs><style>.cls-1{fill:#d6251f;}</style></defs><g id="Layer_2" data-name="Layer 2"><g id="Layer_1-2" data-name="Layer 1"><path class="cls-1" d="M34.23,29.28v4a1,1,0,0,1-.32.73,1,1,0,0,1-.77.26A22.26,22.26,0,0,1,13,14.11a1,1,0,0,1,.25-.76A1,1,0,0,1,14,13h4a1,1,0,0,1,1,.87,15.35,15.35,0,0,0,.61,2.94,1,1,0,0,1,0,.3,1,1,0,0,1-.28.7l-2.62,2.61.32.63a20.48,20.48,0,0,0,9.15,9.16l.63.31,2.62-2.61a1,1,0,0,1,1-.24,17.45,17.45,0,0,0,2.94.61A1,1,0,0,1,34.23,29.28Z"/><path class="cls-1" d="M23.63,0A23.63,23.63,0,1,0,47.25,23.63,23.63,23.63,0,0,0,23.63,0ZM36.19,33.24A3,3,0,0,1,33,36.18a23.89,23.89,0,0,1-8.16-2.24A24.23,24.23,0,0,1,11.07,14.29a2.44,2.44,0,0,1,0-.27,2.95,2.95,0,0,1,2.95-3h4a2.94,2.94,0,0,1,2.93,2.61,15.06,15.06,0,0,0,.53,2.59,2.92,2.92,0,0,1-.72,2.95l-1.61,1.61a18.48,18.48,0,0,0,7.32,7.32L28,26.54A3,3,0,0,1,31,25.81a13.69,13.69,0,0,0,2.59.53,3,3,0,0,1,2.61,2.94Z"/></g></g></svg>