<svg xmlns="http://www.w3.org/2000/svg" viewBox="0 0 47.25 47.25"><defs><style>.cls-1{fill:#d6251f;}</style></defs><g id="Layer_2" data-name="Layer 2"><g id="Layer_1-2" data-name="Layer 1"><polygon class="cls-1" points="11.16 30.54 18.96 23.57 11.16 16.59 11.16 30.54"/><path class="cls-1" d="M21,25.4l-.73-.65L12.6,31.63H34.66L27,24.75l-.72.65a3.91,3.91,0,0,1-5.22,0Z"/><polygon class="cls-1" points="36.09 30.54 36.09 16.59 28.29 23.57 36.09 30.54"/><path class="cls-1" d="M23.63,0A23.63,23.63,0,1,0,47.25,23.63,23.63,23.63,0,0,0,23.63,0ZM37.86,32.64a.88.88,0,0,1-.88.88H10.28a.89.89,0,0,1-.89-.88v-18a.79.79,0,0,1,0-.3h0a.25.25,0,0,1,0-.07A.8.8,0,0,1,9.63,14L9.7,14a.94.94,0,0,1,.18-.12l.09,0a.78.78,0,0,1,.31-.07H37a.82.82,0,0,1,.31.07l.08,0a.57.57,0,0,1,.18.12l.08.07a1,1,0,0,1,.13.2s0,0,0,.06h0a.8.8,0,0,1,.06.3v18Z"/><path class="cls-1" d="M25.06,24.08l9.6-8.58H12.6l9.6,8.58A2.14,2.14,0,0,0,25.06,24.08Z"/></g></g></svg>