<svg width="18" height="18" viewBox="0 0 18 18" fill="none" xmlns="http://www.w3.org/2000/svg">
<g clip-path="url(#clip0_202_13)">
<path d="M8.99999 13.8C9.69999 12.5 10.1 11.1 10.2 9.59998H7.79999C7.89999 11.1 8.29999 12.5 8.99999 13.8Z" fill="#044013"/>
<path d="M4.09998 8.39999H6.49998C6.59998 6.99999 6.89998 5.59999 7.49998 4.29999C5.69998 4.79999 4.29998 6.49999 4.09998 8.39999Z" fill="#044013"/>
<path d="M10.2 8.40001C10.1 6.90001 9.69999 5.50001 8.99999 4.20001C8.29999 5.50001 7.89999 6.90001 7.79999 8.40001H10.2Z" fill="#044013"/>
<path d="M4.09998 9.59998C4.39998 11.5 5.69998 13.1 7.59998 13.7C6.99998 12.4 6.69998 11 6.59998 9.59998H4.09998Z" fill="#044013"/>
<path d="M10.4 4.29999C11 5.59999 11.3 6.99999 11.4 8.39999H13.9C13.6 6.49999 12.3 4.79999 10.4 4.29999Z" fill="#044013"/>
<path d="M17 0H1C0.4 0 0 0.4 0 1V17C0 17.6 0.4 18 1 18H17C17.6 18 18 17.6 18 17V1C18 0.4 17.6 0 17 0ZM9 15.2C5.6 15.2 2.8 12.4 2.8 9C2.8 5.6 5.6 2.8 9 2.8C12.4 2.8 15.2 5.6 15.2 9C15.2 12.4 12.4 15.2 9 15.2Z" fill="#044013"/>
<path d="M10.4 13.7C12.3 13.1 13.6 11.5 13.9 9.59998H11.5C11.4 11 11 12.4 10.4 13.7Z" fill="#044013"/>
</g>
<defs>
<clipPath id="clip0_202_13">
<rect width="18" height="18" fill="white"/>
</clipPath>
</defs>
</svg>
