<svg width="20" height="20" viewBox="0 0 20 20" fill="none" xmlns="http://www.w3.org/2000/svg">
<path fill-rule="evenodd" clip-rule="evenodd" d="M10.0008 0C7.285 0 6.94417 0.011875 5.8775 0.0604167C4.81292 0.109167 4.08625 0.277708 3.45042 0.525C2.79271 0.780417 2.23479 1.12208 1.67896 1.67813C1.12271 2.23396 0.781042 2.79187 0.524792 3.44937C0.276875 4.08542 0.108125 4.81229 0.0602083 5.87646C0.0125 6.94313 0 7.28417 0 10C0 12.7158 0.0120833 13.0556 0.0604167 14.1223C0.109375 15.1869 0.277917 15.9135 0.525 16.5494C0.780625 17.2071 1.12229 17.765 1.67833 18.3208C2.23396 18.8771 2.79188 19.2196 3.44917 19.475C4.08542 19.7223 4.81229 19.8908 5.87667 19.9396C6.94333 19.9881 7.28396 20 9.99958 20C12.7156 20 13.0554 19.9881 14.1221 19.9396C15.1867 19.8908 15.9142 19.7223 16.5504 19.475C17.2079 19.2196 17.765 18.8771 18.3206 18.3208C18.8769 17.765 19.2185 17.2071 19.4748 16.5496C19.7206 15.9135 19.8894 15.1867 19.9394 14.1225C19.9873 13.0558 19.9998 12.7158 19.9998 10C19.9998 7.28417 19.9873 6.94333 19.9394 5.87667C19.8894 4.81208 19.7206 4.08542 19.4748 3.44958C19.2185 2.79188 18.8769 2.23396 18.3206 1.67813C17.7644 1.12188 17.2081 0.780208 16.5498 0.525C15.9123 0.277708 15.1852 0.109167 14.1206 0.0604167C13.054 0.011875 12.7144 0 9.99771 0H10.0008ZM9.10371 1.80206C9.36996 1.80164 9.66704 1.80206 10.0008 1.80206C12.6708 1.80206 12.9872 1.81164 14.0416 1.85956C15.0166 1.90414 15.5458 2.06706 15.8983 2.20393C16.365 2.38518 16.6977 2.60185 17.0475 2.95185C17.3975 3.30185 17.6141 3.63518 17.7958 4.10185C17.9327 4.45393 18.0958 4.9831 18.1402 5.9581C18.1881 7.01226 18.1985 7.32893 18.1985 9.99768C18.1985 12.6664 18.1881 12.9831 18.1402 14.0373C18.0956 15.0123 17.9327 15.5414 17.7958 15.8935C17.6145 16.3602 17.3975 16.6925 17.0475 17.0423C16.6975 17.3923 16.3652 17.6089 15.8983 17.7902C15.5462 17.9277 15.0166 18.0902 14.0416 18.1348C12.9875 18.1827 12.6708 18.1931 10.0008 18.1931C7.33058 18.1931 7.01412 18.1827 5.95996 18.1348C4.98496 18.0898 4.45579 17.9268 4.10308 17.79C3.63642 17.6087 3.30308 17.3921 2.95308 17.0421C2.60308 16.6921 2.38642 16.3596 2.20475 15.8927C2.06787 15.5406 1.90475 15.0114 1.86037 14.0364C1.81246 12.9823 1.80287 12.6656 1.80287 9.99518C1.80287 7.32476 1.81246 7.00976 1.86037 5.9556C1.90496 4.9806 2.06787 4.45143 2.20475 4.09893C2.386 3.63226 2.60308 3.29893 2.95308 2.94893C3.30308 2.59893 3.63642 2.38226 4.10308 2.2006C4.45558 2.0631 4.98496 1.9006 5.95996 1.85581C6.88246 1.81414 7.23996 1.80164 9.10371 1.79956V1.80206ZM15.3387 3.46248C14.6762 3.46248 14.1387 3.99935 14.1387 4.66206C14.1387 5.32456 14.6762 5.86206 15.3387 5.86206C16.0012 5.86206 16.5387 5.32456 16.5387 4.66206C16.5387 3.99956 16.0012 3.46248 15.3387 3.46248ZM10.0009 4.86456C7.16481 4.86456 4.86543 7.16393 4.86543 9.99997C4.86543 12.836 7.16481 15.1343 10.0009 15.1343C12.8369 15.1343 15.1354 12.836 15.1354 9.99997C15.1354 7.16393 12.8369 4.86456 10.0009 4.86456ZM10.0008 6.66664C11.8416 6.66664 13.3341 8.15893 13.3341 9.99997C13.3341 11.8408 11.8416 13.3333 10.0008 13.3333C8.15977 13.3333 6.66748 11.8408 6.66748 9.99997C6.66748 8.15893 8.15977 6.66664 10.0008 6.66664Z" fill="white"/>
</svg>
