<svg width="64" height="64" viewBox="0 0 64 64" fill="none" xmlns="http://www.w3.org/2000/svg">
<g clip-path="url(#clip0_68_9)">
<path d="M63 0H1C0.734784 0 0.48043 0.105357 0.292893 0.292893C0.105357 0.48043 0 0.734784 0 1L0 52C0 52.2652 0.105357 52.5196 0.292893 52.7071C0.48043 52.8946 0.734784 53 1 53H24C24 53.2652 24.1054 53.5196 24.2929 53.7071C24.4804 53.8946 24.7348 54 25 54V55C24.7348 55 24.4804 55.1054 24.2929 55.2929C24.1054 55.4804 24 55.7348 24 56C24 56.2652 24.1054 56.5196 24.2929 56.7071C24.4804 56.8946 24.7348 57 25 57C25.0021 57.9292 25.3276 58.8286 25.9207 59.5439C26.5137 60.2592 27.3373 60.7458 28.25 60.92C29.62 65.01 34.36 65.1 35.75 60.92C36.4911 60.7763 37.1764 60.4259 37.7268 59.9092C38.2771 59.3925 38.67 58.7306 38.86 58C39.1252 58.0278 39.3906 57.9492 39.5979 57.7814C39.8051 57.6135 39.9372 57.3702 39.965 57.105C39.9928 56.8398 39.9142 56.5744 39.7464 56.3671C39.5785 56.1599 39.3352 56.0278 39.07 56C38.97 56 39 56.15 39 55C39.2652 55 39.5196 54.8946 39.7071 54.7071C39.8946 54.5196 40 54.2652 40 54C40 53.7348 39.8946 53.4804 39.7071 53.2929C39.5196 53.1054 39.2652 53 39 53H63C63.2652 53 63.5196 52.8946 63.7071 52.7071C63.8946 52.5196 64 52.2652 64 52V1C64 0.734784 63.8946 0.48043 63.7071 0.292893C63.5196 0.105357 63.2652 0 63 0ZM2 2H62V8H2V2ZM27 51H37V52.85L27 52.14V51ZM37 49H27C26.74 46.28 25.35 44.48 23.26 42.56C21.3734 40.8286 20.0402 38.5786 19.4276 36.0923C18.815 33.606 18.9503 30.9941 19.8166 28.5844C20.6828 26.1747 22.2414 24.0745 24.2968 22.5473C26.3522 21.0201 28.8128 20.134 31.37 20C43.51 19.42 49.66 34.34 40.82 42.51C38.71 44.48 37.32 46.29 37.05 49H37ZM30.4 61H33.6C33.4538 61.2999 33.2263 61.5526 32.9434 61.7294C32.6605 61.9063 32.3336 62 32 62C31.6664 62 31.3395 61.9063 31.0566 61.7294C30.7737 61.5526 30.5462 61.2999 30.4 61ZM35 59H29C28.4946 59.0014 28.0073 58.8114 27.6363 58.4682C27.2652 58.125 27.0379 57.654 27 57.15L36.8 57.85C36.6393 58.1922 36.385 58.4819 36.0664 58.6854C35.7478 58.889 35.378 58.998 35 59ZM27 55.14V54.14L37 54.85V55.85L27 55.14ZM39 51C39 48.19 39.12 46.82 42.18 44C44.4013 41.9548 45.9538 39.2869 46.6342 36.3451C47.3146 33.4033 47.0914 30.3246 45.9937 27.5117C44.896 24.6989 42.9749 22.2828 40.4818 20.5794C37.9886 18.8761 35.0395 17.9649 32.02 17.9649C29.0005 17.9649 26.0514 18.8761 23.5582 20.5794C21.0651 22.2828 19.144 24.6989 18.0463 27.5117C16.9486 30.3246 16.7254 33.4033 17.4058 36.3451C18.0862 39.2869 19.6387 41.9548 21.86 44C24.86 46.77 25 48.14 25 51H2V10H62V51H39Z" fill="#013335"/>
<path d="M6 4C5.73478 4 5.48043 4.10536 5.29289 4.29289C5.10536 4.48043 5 4.73478 5 5C5 5.26522 5.10536 5.51957 5.29289 5.70711C5.48043 5.89464 5.73478 6 6 6C6.26522 6 6.51957 5.89464 6.70711 5.70711C6.89464 5.51957 7 5.26522 7 5C7 4.73478 6.89464 4.48043 6.70711 4.29289C6.51957 4.10536 6.26522 4 6 4Z" fill="#013335"/>
<path d="M11 4C10.7348 4 10.4804 4.10536 10.2929 4.29289C10.1054 4.48043 10 4.73478 10 5C10 5.26522 10.1054 5.51957 10.2929 5.70711C10.4804 5.89464 10.7348 6 11 6C11.2652 6 11.5196 5.89464 11.7071 5.70711C11.8946 5.51957 12 5.26522 12 5C12 4.73478 11.8946 4.48043 11.7071 4.29289C11.5196 4.10536 11.2652 4 11 4Z" fill="#013335"/>
<path d="M16 4C15.7348 4 15.4804 4.10536 15.2929 4.29289C15.1054 4.48043 15 4.73478 15 5C15 5.26522 15.1054 5.51957 15.2929 5.70711C15.4804 5.89464 15.7348 6 16 6C16.2652 6 16.5196 5.89464 16.7071 5.70711C16.8946 5.51957 17 5.26522 17 5C17 4.73478 16.8946 4.48043 16.7071 4.29289C16.5196 4.10536 16.2652 4 16 4Z" fill="#013335"/>
<path d="M31 31H35C35.2652 31 35.5196 30.8946 35.7071 30.7071C35.8946 30.5196 36 30.2652 36 30C36 29.7348 35.8946 29.4804 35.7071 29.2929C35.5196 29.1054 35.2652 29 35 29H33V28C33 27.7348 32.8946 27.4804 32.7071 27.2929C32.5196 27.1054 32.2652 27 32 27C31.7348 27 31.4804 27.1054 31.2929 27.2929C31.1054 27.4804 31 27.7348 31 28V29C30.2044 29 29.4413 29.3161 28.8787 29.8787C28.3161 30.4413 28 31.2044 28 32C28 32.7956 28.3161 33.5587 28.8787 34.1213C29.4413 34.6839 30.2044 35 31 35H33C33.2652 35 33.5196 35.1054 33.7071 35.2929C33.8946 35.4804 34 35.7348 34 36C34 36.2652 33.8946 36.5196 33.7071 36.7071C33.5196 36.8946 33.2652 37 33 37H29C28.7348 37 28.4804 37.1054 28.2929 37.2929C28.1054 37.4804 28 37.7348 28 38C28 38.2652 28.1054 38.5196 28.2929 38.7071C28.4804 38.8946 28.7348 39 29 39H31V40C31 40.2652 31.1054 40.5196 31.2929 40.7071C31.4804 40.8946 31.7348 41 32 41C32.2652 41 32.5196 40.8946 32.7071 40.7071C32.8946 40.5196 33 40.2652 33 40V39C33.7956 39 34.5587 38.6839 35.1213 38.1213C35.6839 37.5587 36 36.7956 36 36C36 35.2044 35.6839 34.4413 35.1213 33.8787C34.5587 33.3161 33.7956 33 33 33H31C30.7348 33 30.4804 32.8946 30.2929 32.7071C30.1054 32.5196 30 32.2652 30 32C30 31.7348 30.1054 31.4804 30.2929 31.2929C30.4804 31.1054 30.7348 31 31 31Z" fill="#013335"/>
<path d="M53 32H50C49.7348 32 49.4804 32.1054 49.2929 32.2929C49.1054 32.4804 49 32.7348 49 33C49 33.2652 49.1054 33.5196 49.2929 33.7071C49.4804 33.8946 49.7348 34 50 34H53C53.2652 34 53.5196 33.8946 53.7071 33.7071C53.8946 33.5196 54 33.2652 54 33C54 32.7348 53.8946 32.4804 53.7071 32.2929C53.5196 32.1054 53.2652 32 53 32Z" fill="#013335"/>
<path d="M14 32H11C10.7348 32 10.4804 32.1054 10.2929 32.2929C10.1054 32.4804 10 32.7348 10 33C10 33.2652 10.1054 33.5196 10.2929 33.7071C10.4804 33.8946 10.7348 34 11 34H14C14.2652 34 14.5196 33.8946 14.7071 33.7071C14.8946 33.5196 15 33.2652 15 33C15 32.7348 14.8946 32.4804 14.7071 32.2929C14.5196 32.1054 14.2652 32 14 32Z" fill="#013335"/>
<path d="M31 12V15C31 15.2652 31.1054 15.5196 31.2929 15.7071C31.4804 15.8946 31.7348 16 32 16C32.2652 16 32.5196 15.8946 32.7071 15.7071C32.8946 15.5196 33 15.2652 33 15V12C33 11.7348 32.8946 11.4804 32.7071 11.2929C32.5196 11.1054 32.2652 11 32 11C31.7348 11 31.4804 11.1054 31.2929 11.2929C31.1054 11.4804 31 11.7348 31 12Z" fill="#013335"/>
<path d="M45.4289 44.9998C45.238 44.8102 44.9795 44.7041 44.7104 44.7051C44.4413 44.706 44.1836 44.8138 43.9939 45.0048C43.8043 45.1957 43.6983 45.4542 43.6992 45.7233C43.7002 45.9924 43.808 46.2501 43.9989 46.4398C46.3089 48.7398 46.2889 48.8498 46.8289 48.8498C47.0275 48.8509 47.222 48.7929 47.3875 48.6831C47.5531 48.5733 47.6821 48.4167 47.7583 48.2333C47.8345 48.0498 47.8543 47.8478 47.8152 47.6531C47.7761 47.4584 47.68 47.2797 47.5389 47.1398L45.4289 44.9998Z" fill="#013335"/>
<path d="M17.8586 17.4406C17.6703 17.2523 17.4149 17.1465 17.1486 17.1465C16.8823 17.1465 16.6269 17.2523 16.4386 17.4406C16.2503 17.6289 16.1445 17.8843 16.1445 18.1506C16.1445 18.4169 16.2503 18.6723 16.4386 18.8606C18.7486 21.1606 18.7286 21.2706 19.2686 21.2706C19.469 21.2758 19.6662 21.2207 19.8349 21.1125C20.0035 21.0043 20.1358 20.8478 20.2145 20.6635C20.2931 20.4792 20.3146 20.2755 20.2762 20.0789C20.2377 19.8822 20.141 19.7016 19.9986 19.5606L17.8586 17.4406Z" fill="#013335"/>
<path d="M17.8618 48.5598L20.0018 46.4398C20.1928 46.2501 20.3006 45.9924 20.3015 45.7233C20.3024 45.4542 20.1964 45.1957 20.0068 45.0048C19.8172 44.8138 19.5595 44.706 19.2903 44.7051C19.0212 44.7041 18.7628 44.8102 18.5718 44.9998L16.4418 47.1198C16.2509 47.3081 16.1425 47.5645 16.1406 47.8327C16.1388 48.1009 16.2435 48.3588 16.4318 48.5498C16.6201 48.7407 16.8766 48.8491 17.1447 48.8509C17.4129 48.8528 17.6709 48.7481 17.8618 48.5598Z" fill="#013335"/>
<path d="M46.1389 17.4396L43.9989 19.5596C43.9044 19.6535 43.8292 19.7651 43.7778 19.8881C43.7264 20.011 43.6997 20.1428 43.6992 20.2761C43.6988 20.4093 43.7245 20.5414 43.7751 20.6647C43.8257 20.788 43.9 20.9001 43.9939 20.9946C44.0878 21.0892 44.1994 21.1643 44.3223 21.2157C44.4453 21.2672 44.5771 21.2939 44.7104 21.2943C44.8436 21.2948 44.9757 21.269 45.099 21.2184C45.2222 21.1679 45.3344 21.0935 45.4289 20.9996L47.5589 18.8796C47.7499 18.6913 47.8582 18.4349 47.8601 18.1667C47.862 17.8985 47.7572 17.6406 47.5689 17.4496C47.3806 17.2587 47.1242 17.1503 46.856 17.1485C46.5878 17.1466 46.3299 17.2513 46.1389 17.4396Z" fill="#013335"/>
</g>
<defs>
<clipPath id="clip0_68_9">
<rect width="64" height="64" fill="white"/>
</clipPath>
</defs>
</svg>
