<svg width="64" height="64" viewBox="0 0 64 64" fill="none" xmlns="http://www.w3.org/2000/svg">
<g clip-path="url(#clip0_68_23)">
<path d="M31.9981 23.3301C30.8767 23.3301 29.7805 23.6626 28.848 24.2856C27.9156 24.9087 27.1889 25.7942 26.7597 26.8303C26.3306 27.8663 26.2183 29.0064 26.4371 30.1062C26.6559 31.2061 27.1959 32.2164 27.9888 33.0094C28.7818 33.8023 29.7921 34.3424 30.892 34.5611C31.9918 34.7799 33.1319 34.6676 34.1679 34.2385C35.204 33.8093 36.0895 33.0826 36.7126 32.1502C37.3356 31.2177 37.6681 30.1215 37.6681 29.0001C37.6655 27.4971 37.0673 26.0565 36.0045 24.9937C34.9417 23.9309 33.5011 23.3327 31.9981 23.3301ZM31.9981 32.6701C31.2723 32.6701 30.5627 32.4548 29.9592 32.0516C29.3557 31.6483 28.8853 31.0751 28.6075 30.4045C28.3297 29.7339 28.257 28.996 28.3986 28.2841C28.5403 27.5722 28.8898 26.9183 29.403 26.405C29.9163 25.8917 30.5702 25.5422 31.2821 25.4006C31.9941 25.259 32.732 25.3317 33.4026 25.6094C34.0732 25.8872 34.6464 26.3576 35.0496 26.9611C35.4529 27.5647 35.6681 28.2742 35.6681 29.0001C35.6655 29.9726 35.278 30.9046 34.5903 31.5922C33.9026 32.2799 32.9707 32.6674 31.9981 32.6701Z" fill="#013335"/>
<path d="M62 58.1795V49.9995C62 49.7342 61.8947 49.4799 61.7071 49.2924C61.5196 49.1048 61.2652 48.9995 61 48.9995H44V38.2195L45.28 35.9995H50C52.1204 35.996 54.1715 35.2439 55.7916 33.8759C57.4117 32.5078 58.4968 30.6117 58.8555 28.5218C59.2141 26.432 58.8234 24.2826 57.7521 22.4526C56.6809 20.6227 54.9979 19.2298 53 18.5195C52.939 17.4628 52.669 16.4288 52.2056 15.4773C51.7422 14.5258 51.0945 13.6757 50.3002 12.9763C49.5059 12.2768 48.5807 11.742 47.5782 11.4026C46.5757 11.0633 45.5158 10.9263 44.46 10.9995C43.5361 7.55977 41.4184 4.56107 38.4858 2.53991C35.5532 0.518743 31.9972 -0.392996 28.4539 -0.0321725C24.9106 0.328651 21.6113 1.93849 19.1463 4.5093C16.6814 7.08011 15.2116 10.4441 15 13.9995C12.0826 14.1321 9.33741 15.4182 7.36828 17.5748C5.39915 19.7315 4.3674 22.5821 4.50001 25.4995C4.63261 28.4168 5.91872 31.1621 8.07539 33.1312C10.2321 35.1003 13.0826 36.1321 16 35.9995H18.72L20 38.2195V48.9995H3.00001C2.73479 48.9995 2.48044 49.1048 2.2929 49.2924C2.10536 49.4799 2.00001 49.7342 2.00001 49.9995V58.1795C1.33279 58.4154 0.770452 58.8795 0.412375 59.4899C0.0542975 60.1003 -0.0764608 60.8177 0.0432105 61.5152C0.162882 62.2127 0.525277 62.8454 1.06635 63.3016C1.60741 63.7577 2.29232 64.0079 3.00001 64.0079C3.70769 64.0079 4.3926 63.7577 4.93367 63.3016C5.47474 62.8454 5.83713 62.2127 5.9568 61.5152C6.07647 60.8177 5.94572 60.1003 5.58764 59.4899C5.22956 58.8795 4.66722 58.4154 4.00001 58.1795V50.9995H21C21.2652 50.9995 21.5196 50.8941 21.7071 50.7066C21.8946 50.519 22 50.2647 22 49.9995V39.3895L24.21 38.1195C24.46 38.3295 24.73 38.5395 25 38.7295V53.9995H18C17.7348 53.9995 17.4804 54.1048 17.2929 54.2924C17.1054 54.4799 17 54.7342 17 54.9995V58.1795C16.3328 58.4154 15.7705 58.8795 15.4124 59.4899C15.0543 60.1003 14.9235 60.8177 15.0432 61.5152C15.1629 62.2127 15.5253 62.8454 16.0663 63.3016C16.6074 63.7577 17.2923 64.0079 18 64.0079C18.7077 64.0079 19.3926 63.7577 19.9337 63.3016C20.4747 62.8454 20.8371 62.2127 20.9568 61.5152C21.0765 60.8177 20.9457 60.1003 20.5876 59.4899C20.2296 58.8795 19.6672 58.4154 19 58.1795V55.9995H26C26.2652 55.9995 26.5196 55.8941 26.7071 55.7066C26.8946 55.519 27 55.2647 27 54.9995V39.8995C27.33 40.0495 27.66 40.1895 28 40.3095V42.9995C28 43.2647 28.1054 43.519 28.2929 43.7066C28.4804 43.8941 28.7348 43.9995 29 43.9995H31V58.1795C30.3328 58.4154 29.7705 58.8795 29.4124 59.4899C29.0543 60.1003 28.9235 60.8177 29.0432 61.5152C29.1629 62.2127 29.5253 62.8454 30.0663 63.3016C30.6074 63.7577 31.2923 64.0079 32 64.0079C32.7077 64.0079 33.3926 63.7577 33.9337 63.3016C34.4747 62.8454 34.8371 62.2127 34.9568 61.5152C35.0765 60.8177 34.9457 60.1003 34.5876 59.4899C34.2296 58.8795 33.6672 58.4154 33 58.1795V43.9995H35C35.2652 43.9995 35.5196 43.8941 35.7071 43.7066C35.8947 43.519 36 43.2647 36 42.9995V40.3095C36.34 40.1895 36.67 40.0495 37 39.8995V54.9995C37 55.2647 37.1054 55.519 37.2929 55.7066C37.4804 55.8941 37.7348 55.9995 38 55.9995H45V58.1795C44.3328 58.4154 43.7705 58.8795 43.4124 59.4899C43.0543 60.1003 42.9235 60.8177 43.0432 61.5152C43.1629 62.2127 43.5253 62.8454 44.0663 63.3016C44.6074 63.7577 45.2923 64.0079 46 64.0079C46.7077 64.0079 47.3926 63.7577 47.9337 63.3016C48.4747 62.8454 48.8371 62.2127 48.9568 61.5152C49.0765 60.8177 48.9457 60.1003 48.5876 59.4899C48.2296 58.8795 47.6672 58.4154 47 58.1795V54.9995C47 54.7342 46.8947 54.4799 46.7071 54.2924C46.5196 54.1048 46.2652 53.9995 46 53.9995H39V38.7295C39.27 38.5395 39.54 38.3295 39.79 38.1195L42 39.3895V49.9995C42 50.2647 42.1054 50.519 42.2929 50.7066C42.4804 50.8941 42.7348 50.9995 43 50.9995H60V58.1795C59.3328 58.4154 58.7705 58.8795 58.4124 59.4899C58.0543 60.1003 57.9235 60.8177 58.0432 61.5152C58.1629 62.2127 58.5253 62.8454 59.0663 63.3016C59.6074 63.7577 60.2923 64.0079 61 64.0079C61.7077 64.0079 62.3926 63.7577 62.9337 63.3016C63.4747 62.8454 63.8371 62.2127 63.9568 61.5152C64.0765 60.8177 63.9457 60.1003 63.5876 59.4899C63.2296 58.8795 62.6672 58.4154 62 58.1795ZM3.00001 61.9995C2.73479 61.9995 2.48044 61.8941 2.2929 61.7066C2.10536 61.519 2.00001 61.2647 2.00001 60.9995C2.00001 60.7342 2.10536 60.4799 2.2929 60.2924C2.48044 60.1048 2.73479 59.9995 3.00001 59.9995C3.26522 59.9995 3.51958 60.1048 3.70711 60.2924C3.89465 60.4799 4.00001 60.7342 4.00001 60.9995C4.00001 61.2647 3.89465 61.519 3.70711 61.7066C3.51958 61.8941 3.26522 61.9995 3.00001 61.9995ZM18 61.9995C17.7348 61.9995 17.4804 61.8941 17.2929 61.7066C17.1054 61.519 17 61.2647 17 60.9995C17 60.7342 17.1054 60.4799 17.2929 60.2924C17.4804 60.1048 17.7348 59.9995 18 59.9995C18.2652 59.9995 18.5196 60.1048 18.7071 60.2924C18.8946 60.4799 19 60.7342 19 60.9995C19 61.2647 18.8946 61.519 18.7071 61.7066C18.5196 61.8941 18.2652 61.9995 18 61.9995ZM32 61.9995C31.7348 61.9995 31.4804 61.8941 31.2929 61.7066C31.1054 61.519 31 61.2647 31 60.9995C31 60.7342 31.1054 60.4799 31.2929 60.2924C31.4804 60.1048 31.7348 59.9995 32 59.9995C32.2652 59.9995 32.5196 60.1048 32.7071 60.2924C32.8947 60.4799 33 60.7342 33 60.9995C33 61.2647 32.8947 61.519 32.7071 61.7066C32.5196 61.8941 32.2652 61.9995 32 61.9995ZM46 61.9995C45.7348 61.9995 45.4804 61.8941 45.2929 61.7066C45.1054 61.519 45 61.2647 45 60.9995C45 60.7342 45.1054 60.4799 45.2929 60.2924C45.4804 60.1048 45.7348 59.9995 46 59.9995C46.2652 59.9995 46.5196 60.1048 46.7071 60.2924C46.8947 60.4799 47 60.7342 47 60.9995C47 61.2647 46.8947 61.519 46.7071 61.7066C46.5196 61.8941 46.2652 61.9995 46 61.9995ZM16 33.9995C13.6131 33.9995 11.3239 33.0512 9.63605 31.3634C7.94822 29.6756 7.00001 27.3864 7.00001 24.9995C7.00001 22.6125 7.94822 20.3233 9.63605 18.6355C11.3239 16.9477 13.6131 15.9995 16 15.9995C16.2652 15.9995 16.5196 15.8941 16.7071 15.7066C16.8946 15.519 17 15.2647 17 14.9995C17.0009 11.7855 18.1923 8.68584 20.3442 6.29869C22.4962 3.91153 25.4561 2.40613 28.6527 2.07304C31.8493 1.73995 35.056 2.6028 37.6539 4.49503C40.2517 6.38727 42.0566 9.17475 42.72 12.3195C42.771 12.575 42.9197 12.8006 43.1345 12.9481C43.3493 13.0957 43.6132 13.1536 43.87 13.1095C44.7469 12.9412 45.6502 12.9707 46.5142 13.1959C47.3782 13.421 48.181 13.8362 48.8642 14.4111C49.5474 14.986 50.0936 15.7061 50.4631 16.5189C50.8326 17.3317 51.016 18.2167 51 19.1095C50.9515 19.3608 51.0011 19.6212 51.1388 19.837C51.2765 20.0528 51.4916 20.2076 51.74 20.2695C53.3495 20.7279 54.7416 21.7478 55.6638 23.1443C56.586 24.5408 56.9774 26.2215 56.767 27.8818C56.5566 29.542 55.7583 31.072 54.5169 32.1943C53.2754 33.3166 51.673 33.957 50 33.9995C45.89 33.9995 46.41 33.9995 46.49 33.8995C46.6204 33.6698 46.6546 33.398 46.5853 33.1432C46.516 32.8884 46.3487 32.6714 46.12 32.5395L43.79 31.1895C44.0701 29.7429 44.0701 28.256 43.79 26.8095L46.12 25.4595C46.3487 25.3275 46.516 25.1105 46.5853 24.8557C46.6546 24.6009 46.6204 24.3291 46.49 24.0995L43.49 18.8995C43.4238 18.7857 43.3359 18.6861 43.2312 18.6064C43.1264 18.5268 43.007 18.4685 42.8797 18.4351C42.7525 18.4016 42.6198 18.3936 42.4895 18.4115C42.3591 18.4295 42.2335 18.4729 42.12 18.5395L39.79 19.8795C38.6692 18.9268 37.3851 18.1848 36 17.6895V14.9995C36 14.7342 35.8947 14.4799 35.7071 14.2924C35.5196 14.1048 35.2652 13.9995 35 13.9995H29C28.7348 13.9995 28.4804 14.1048 28.2929 14.2924C28.1054 14.4799 28 14.7342 28 14.9995V17.6895C26.6149 18.1848 25.3309 18.9268 24.21 19.8795L21.88 18.5395C21.7665 18.4729 21.6409 18.4295 21.5105 18.4115C21.3802 18.3936 21.2476 18.4016 21.1203 18.4351C20.993 18.4685 20.8736 18.5268 20.7689 18.6064C20.6641 18.6861 20.5762 18.7857 20.51 18.8995C16.51 25.8095 16.29 24.5495 20.21 26.8095C19.9299 28.256 19.9299 29.7429 20.21 31.1895C17.72 32.6295 17.55 32.6195 17.41 33.1395C17.13 34.1895 18.53 33.9995 16 33.9995ZM39 36.1695C36 38.9995 34 38.0795 34 39.5795V41.9995H30C30 39.5795 30.19 38.8695 29.27 38.6095C25.32 37.4895 25.14 35.2695 23.84 36.0195L21.74 37.2295L19.74 33.7695C21.85 32.5495 22.55 32.3695 22.31 31.4395C21.8998 29.8387 21.8998 28.1603 22.31 26.5595C22.56 25.5595 21.65 25.3295 19.74 24.2295L21.74 20.7695L23.84 21.9995C25.12 22.7395 25.38 20.5095 29.27 19.4095C30.19 19.1495 30 18.4095 30 16.0195H34V18.4395C34 19.9095 36.08 19.0495 39 21.8495C39.67 22.4995 40.12 22.0495 42.3 20.7895L44.3 24.2495C40.35 26.4895 42 25.1995 42 28.9995C42 32.7995 40.34 31.4995 44.26 33.7695L42.26 37.2295C40.16 35.9995 39.65 35.5095 39 36.1695ZM61 61.9995C60.7348 61.9995 60.4804 61.8941 60.2929 61.7066C60.1054 61.519 60 61.2647 60 60.9995C60 60.7342 60.1054 60.4799 60.2929 60.2924C60.4804 60.1048 60.7348 59.9995 61 59.9995C61.2652 59.9995 61.5196 60.1048 61.7071 60.2924C61.8947 60.4799 62 60.7342 62 60.9995C62 61.2647 61.8947 61.519 61.7071 61.7066C61.5196 61.8941 61.2652 61.9995 61 61.9995Z" fill="#013335"/>
</g>
<defs>
<clipPath id="clip0_68_23">
<rect width="64" height="64" fill="white"/>
</clipPath>
</defs>
</svg>
