<svg width="70" height="70" viewBox="0 0 70 70" fill="none" xmlns="http://www.w3.org/2000/svg">
<g clip-path="url(#clip0_67_5)">
<path d="M66.7188 59.0623H65.625V19.6873C65.625 18.527 65.1641 17.4142 64.3436 16.5937C63.5231 15.7732 62.4103 15.3123 61.25 15.3123C49.9297 15.3123 54.6 15.5748 51.5047 14.3826C51.3349 12.7451 50.5558 11.2311 49.322 10.1412C48.0882 9.05118 46.4897 8.46476 44.8438 8.49824C44.0442 5.85431 42.3497 3.57088 40.0509 2.03944C37.7522 0.507999 34.9922 -0.176055 32.2443 0.104554C29.4964 0.385163 26.9317 1.61296 24.9899 3.57743C23.0482 5.54191 21.8502 8.1207 21.6016 10.8717C20.2239 11.0335 18.9044 11.5205 17.7519 12.2926C16.5995 13.0647 15.6471 14.0997 14.9734 15.3123H8.75C7.58968 15.3123 6.47688 15.7732 5.65641 16.5937C4.83594 17.4142 4.375 18.527 4.375 19.6873V59.0623H3.28125C2.41101 59.0623 1.57641 59.408 0.961056 60.0234C0.345702 60.6387 0 61.4733 0 62.3436L0 64.5311C0 65.9815 0.57617 67.3725 1.60176 68.398C2.62735 69.4236 4.01835 69.9998 5.46875 69.9998H64.5312C65.9817 69.9998 67.3727 69.4236 68.3982 68.398C69.4238 67.3725 70 65.9815 70 64.5311V62.3436C70 61.4733 69.6543 60.6387 69.0389 60.0234C68.4236 59.408 67.589 59.0623 66.7188 59.0623ZM59.0625 21.8748V54.6873H10.9375V21.8748H14.1313C14.6318 23.7536 15.7379 25.4149 17.2783 26.6013C18.8186 27.7877 20.7073 28.433 22.6516 28.4373H28.4375V38.2811H17.5C17.2099 38.2811 16.9317 38.3963 16.7266 38.6014C16.5215 38.8065 16.4062 39.0847 16.4062 39.3748V45.0404C15.6765 45.2984 15.0614 45.8061 14.6698 46.4738C14.2781 47.1414 14.1351 47.926 14.266 48.6889C14.3969 49.4518 14.7933 50.1438 15.3851 50.6427C15.9769 51.1416 16.726 51.4153 17.5 51.4153C18.274 51.4153 19.0231 51.1416 19.6149 50.6427C20.2067 50.1438 20.6031 49.4518 20.734 48.6889C20.8649 47.926 20.7219 47.1414 20.3302 46.4738C19.9386 45.8061 19.3235 45.2984 18.5938 45.0404V40.4686H29.5312C29.8213 40.4686 30.0995 40.3533 30.3046 40.1482C30.5098 39.9431 30.625 39.6649 30.625 39.3748V28.4373H33.9062V45.0404C33.1765 45.2984 32.5614 45.8061 32.1698 46.4738C31.7781 47.1414 31.6351 47.926 31.766 48.6889C31.8969 49.4518 32.2933 50.1438 32.8851 50.6427C33.4769 51.1416 34.226 51.4153 35 51.4153C35.774 51.4153 36.5231 51.1416 37.1149 50.6427C37.7067 50.1438 38.1031 49.4518 38.234 48.6889C38.3649 47.926 38.2219 47.1414 37.8302 46.4738C37.4386 45.8061 36.8235 45.2984 36.0938 45.0404V28.4373H39.375V39.3748C39.375 39.6649 39.4902 39.9431 39.6954 40.1482C39.9005 40.3533 40.1787 40.4686 40.4688 40.4686H51.4062V45.0404C50.6765 45.2984 50.0614 45.8061 49.6698 46.4738C49.2781 47.1414 49.1351 47.926 49.266 48.6889C49.3969 49.4518 49.7933 50.1438 50.3851 50.6427C50.9769 51.1416 51.726 51.4153 52.5 51.4153C53.274 51.4153 54.0231 51.1416 54.6149 50.6427C55.2067 50.1438 55.6031 49.4518 55.734 48.6889C55.8649 47.926 55.7219 47.1414 55.3302 46.4738C54.9386 45.8061 54.3235 45.2984 53.5938 45.0404V39.3748C53.5938 39.0847 53.4785 38.8065 53.2734 38.6014C53.0683 38.3963 52.7901 38.2811 52.5 38.2811H41.5625V28.4373H48.9016C50.7053 28.4326 52.4431 27.7589 53.7787 26.5466C55.1142 25.3343 55.9525 23.6696 56.1312 21.8748H59.0625ZM17.5 47.0311C17.7901 47.0311 18.0683 47.1463 18.2734 47.3514C18.4785 47.5565 18.5938 47.8347 18.5938 48.1248C18.5938 48.4149 18.4785 48.6931 18.2734 48.8982C18.0683 49.1033 17.7901 49.2186 17.5 49.2186C17.2099 49.2186 16.9317 49.1033 16.7266 48.8982C16.5215 48.6931 16.4062 48.4149 16.4062 48.1248C16.4062 47.8347 16.5215 47.5565 16.7266 47.3514C16.9317 47.1463 17.2099 47.0311 17.5 47.0311ZM35 47.0311C35.2901 47.0311 35.5683 47.1463 35.7734 47.3514C35.9785 47.5565 36.0938 47.8347 36.0938 48.1248C36.0938 48.4149 35.9785 48.6931 35.7734 48.8982C35.5683 49.1033 35.2901 49.2186 35 49.2186C34.7099 49.2186 34.4317 49.1033 34.2266 48.8982C34.0215 48.6931 33.9062 48.4149 33.9062 48.1248C33.9062 47.8347 34.0215 47.5565 34.2266 47.3514C34.4317 47.1463 34.7099 47.0311 35 47.0311ZM52.5 47.0311C52.7901 47.0311 53.0683 47.1463 53.2734 47.3514C53.4785 47.5565 53.5938 47.8347 53.5938 48.1248C53.5938 48.4149 53.4785 48.6931 53.2734 48.8982C53.0683 49.1033 52.7901 49.2186 52.5 49.2186C52.2099 49.2186 51.9317 49.1033 51.7266 48.8982C51.5215 48.6931 51.4062 48.4149 51.4062 48.1248C51.4062 47.8347 51.5215 47.5565 51.7266 47.3514C51.9317 47.1463 52.2099 47.0311 52.5 47.0311ZM22.6516 12.9935C22.9416 12.9935 23.2198 12.8783 23.425 12.6732C23.6301 12.4681 23.7453 12.1899 23.7453 11.8998C23.7472 9.49848 24.6386 7.183 26.2475 5.40032C27.8563 3.61764 30.0685 2.49416 32.4571 2.24674C34.8456 1.99933 37.2411 2.64551 39.1812 4.06057C41.1213 5.47563 42.4684 7.55923 42.9625 9.90918C43.0206 10.1912 43.1875 10.4389 43.4271 10.5986C43.6666 10.7584 43.9595 10.8172 44.2422 10.7623C44.8677 10.644 45.5117 10.6661 46.1277 10.8271C46.7436 10.988 47.3161 11.2838 47.8038 11.693C48.2915 12.1022 48.6823 12.6146 48.9478 13.1933C49.2133 13.7719 49.3469 14.4023 49.3391 15.0389C49.3014 15.3069 49.3644 15.5793 49.5159 15.8036C49.6674 16.0278 49.8967 16.1879 50.1594 16.2529C55.9234 17.7295 54.8297 26.2498 48.9016 26.2498H22.6516C20.8937 26.2498 19.2078 25.5515 17.9648 24.3085C16.7218 23.0655 16.0234 21.3796 16.0234 19.6217C16.0234 17.8638 16.7218 16.1779 17.9648 14.9349C19.2078 13.6919 20.8937 12.9935 22.6516 12.9935ZM6.5625 19.6873C6.5625 19.1071 6.79297 18.5507 7.2032 18.1405C7.61344 17.7303 8.16984 17.4998 8.75 17.4998H14.0984C13.9215 18.2154 13.8333 18.9501 13.8359 19.6873H9.84375C9.55367 19.6873 9.27547 19.8025 9.07035 20.0077C8.86523 20.2128 8.75 20.491 8.75 20.781V55.7811C8.75 56.0711 8.86523 56.3493 9.07035 56.5545C9.27547 56.7596 9.55367 56.8748 9.84375 56.8748H60.1562C60.4463 56.8748 60.7245 56.7596 60.9296 56.5545C61.1348 56.3493 61.25 56.0711 61.25 55.7811V20.781C61.25 20.491 61.1348 20.2128 60.9296 20.0077C60.7245 19.8025 60.4463 19.6873 60.1562 19.6873H56C55.8356 18.9169 55.5475 18.1781 55.1469 17.4998H61.25C61.8302 17.4998 62.3866 17.7303 62.7968 18.1405C63.207 18.5507 63.4375 19.1071 63.4375 19.6873V59.0623H6.5625V19.6873ZM43.8922 61.2498L43.1594 62.3436H26.8406L26.1078 61.2498H43.8922ZM67.8125 64.5311C67.8125 65.4013 67.4668 66.2359 66.8514 66.8512C66.2361 67.4666 65.4015 67.8123 64.5312 67.8123H5.46875C4.59851 67.8123 3.76391 67.4666 3.14856 66.8512C2.5332 66.2359 2.1875 65.4013 2.1875 64.5311V62.3436C2.1875 62.0535 2.30273 61.7753 2.50785 61.5702C2.71297 61.365 2.99117 61.2498 3.28125 61.2498H23.4719L25.3422 64.0389C25.8016 64.7389 24.8938 64.5311 43.75 64.5311C44.5047 64.5311 44.5594 64.2029 46.5281 61.2498H66.7188C67.0088 61.2498 67.287 61.365 67.4921 61.5702C67.6973 61.7753 67.8125 62.0535 67.8125 62.3436V64.5311Z" fill="#013335"/>
</g>
<defs>
<clipPath id="clip0_67_5">
<rect width="70" height="70" fill="white"/>
</clipPath>
</defs>
</svg>
