<svg width="101" height="126" viewBox="0 0 101 126" fill="none" xmlns="http://www.w3.org/2000/svg">
<rect y="125.271" width="125.271" height="101" rx="23" transform="rotate(-90 0 125.271)" fill="#1A8D64"/>
<path d="M69.7774 54.2788C69.7774 42.8569 60.2224 33.6907 48.7543 34.4989C39.1233 35.174 31.3042 43.0308 30.5906 52.7648C29.963 61.3376 34.7254 68.8567 41.8107 72.2276C42.8735 72.734 43.5516 73.8132 43.5516 74.9999V79.7007V83.2505C43.5516 86.6776 46.0366 89.6853 49.4071 90.0638C53.3901 90.5088 56.7657 87.3682 56.7657 83.4296V74.9999C56.7657 73.8132 57.449 72.734 58.5118 72.2276C65.1669 69.0511 69.7774 62.2123 69.7774 54.2788Z" stroke="white" stroke-width="2.5" stroke-miterlimit="10"/>
<path d="M56.761 79.4297H43.5469" stroke="white" stroke-width="2.5" stroke-miterlimit="10"/>
<path d="M50.1564 55.5527C46.3152 55.5527 43.1875 58.7138 43.1875 62.5962V66.6985C45.2271 67.9261 47.6108 68.6371 50.1564 68.6371C52.7021 68.6371 55.0858 67.9312 57.1253 66.6985V62.5962C57.1253 58.7138 53.9977 55.5527 50.1564 55.5527Z" fill="#B7EBD3"/>
<path d="M39.7523 62.5952C39.7523 56.7948 44.4185 52.0787 50.1576 52.0787C55.8967 52.0787 60.5629 56.7948 60.5629 62.5952V63.7564C62.5771 61.3523 63.7918 58.2474 63.7918 54.8562C63.7918 47.2449 57.6883 41.0762 50.1576 41.0762C42.6269 41.0762 36.5234 47.2449 36.5234 54.8562C36.5234 58.2526 37.7381 61.3574 39.7523 63.7564V62.5952V62.5952Z" fill="#B7EBD3"/>
</svg>
