<svg width="101" height="126" viewBox="0 0 101 126" fill="none" xmlns="http://www.w3.org/2000/svg">
<rect y="125.271" width="125.271" height="101" rx="23" transform="rotate(-90 0 125.271)" fill="#1A8D64"/>
<path d="M67.8246 89.1045C70.4327 89.1045 72.3343 86.66 71.715 84.1337C69.4794 75.031 61.2342 68.2715 51.4066 68.2715C41.579 68.2715 33.3289 75.031 31.0982 84.1385C30.4788 86.6649 32.3805 89.1045 34.9886 89.1045H67.8246Z" stroke="white" stroke-width="2.5" stroke-miterlimit="10"/>
<path d="M51.4057 63.72C57.6618 63.72 62.7333 58.6667 62.7333 52.4332C62.7333 46.1997 57.6618 41.1465 51.4057 41.1465C45.1497 41.1465 40.0781 46.1997 40.0781 52.4332C40.0781 58.6667 45.1497 63.72 51.4057 63.72Z" stroke="white" stroke-width="2.5" stroke-miterlimit="10"/>
<path d="M27.4259 82.5482C29.2937 74.9402 34.1034 68.9665 42.5471 66.1895C33.034 66.5077 24.3 72.5584 22.1177 81.4441C21.4984 83.9705 23.4 86.4101 26.0081 86.4101H28.1275C27.392 85.3301 27.0823 83.9512 27.4259 82.5482Z" fill="#B7EBD3"/>
<path d="M36.6855 50.1869C36.6855 43.2056 42.3662 37.5454 49.3728 37.5454C51.8502 37.5454 54.1632 38.2541 56.1132 39.4788C53.9599 36.2629 50.2825 34.1367 46.1066 34.1367C39.4775 34.1367 34.1016 39.4932 34.1016 46.1033C34.1016 49.2805 35.35 52.1685 37.3774 54.314C36.9323 53.0171 36.6855 51.6333 36.6855 50.1869Z" fill="#B7EBD3"/>
</svg>
