<svg width="101" height="126" viewBox="0 0 101 126" fill="none" xmlns="http://www.w3.org/2000/svg">
<rect y="125.271" width="125.271" height="101" rx="23" transform="rotate(-90 0 125.271)" fill="#1A8D64"/>
<path d="M70.6645 73.0001L61.9814 81.6566C60.8689 82.765 59.3702 83.3837 57.7995 83.3837H34.9226C31.6523 83.3837 29 80.7285 29 77.4546V43.0658C29 39.7919 31.6523 37.1367 34.9226 37.1367H66.4826C69.7529 37.1367 72.4052 39.7919 72.4052 43.0658V68.7981C72.4103 70.3758 71.782 71.8864 70.6645 73.0001Z" stroke="white" stroke-width="2.5" stroke-miterlimit="10"/>
<path d="M75.9288 78.5313L67.2457 87.1878C66.1333 88.2963 64.6346 88.915 63.0638 88.915H40.1922C36.9218 88.915 34.2695 86.2598 34.2695 82.9859V48.5971C34.2695 45.3232 36.9218 42.668 40.1922 42.668H71.7521C75.0224 42.668 77.6747 45.3232 77.6747 48.5971V74.3294C77.6747 75.907 77.0464 77.4177 75.9288 78.5313Z" fill="#B7EBD3"/>
<path d="M42.7266 56.6864C42.7266 56.043 43.2481 55.5215 43.8915 55.5215H68.7434C69.3868 55.5215 69.9083 56.043 69.9083 56.6864V56.6864C69.9083 57.3298 69.3868 57.8513 68.7434 57.8513H43.8915C43.2481 57.8513 42.7266 57.3298 42.7266 56.6864V56.6864Z" fill="#1A8D64"/>
<path d="M42.7266 62.122C42.7266 61.4786 43.2481 60.957 43.8915 60.957H68.7434C69.3868 60.957 69.9083 61.4786 69.9083 62.122V62.122C69.9083 62.7653 69.3868 63.2869 68.7434 63.2869H43.8915C43.2481 63.2869 42.7266 62.7653 42.7266 62.122V62.122Z" fill="#1A8D64"/>
<path d="M42.7266 67.5595C42.7266 66.9161 43.2481 66.3945 43.8915 66.3945H68.7434C69.3868 66.3945 69.9083 66.9161 69.9083 67.5595V67.5595C69.9083 68.2028 69.3868 68.7244 68.7434 68.7244H43.8915C43.2481 68.7244 42.7266 68.2028 42.7266 67.5595V67.5595Z" fill="#1A8D64"/>
<path d="M42.7266 72.995C42.7266 72.3516 43.2481 71.8301 43.8915 71.8301H56.3174C56.9608 71.8301 57.4824 72.3516 57.4824 72.995V72.995C57.4824 73.6384 56.9608 74.1599 56.3174 74.1599H43.8915C43.2481 74.1599 42.7266 73.6384 42.7266 72.995V72.995Z" fill="#1A8D64"/>
</svg>
