<svg width="101" height="126" viewBox="0 0 101 126" fill="none" xmlns="http://www.w3.org/2000/svg">
<rect y="125.271" width="125.271" height="101" rx="23" transform="rotate(-90 0 125.271)" fill="#1A8D64"/>
<path d="M50.6504 62.834C57.5313 62.834 63.1093 57.2559 63.1093 50.375C63.1093 43.4941 57.5313 37.916 50.6504 37.916C43.7695 37.916 38.1914 43.4941 38.1914 50.375C38.1914 57.2559 43.7695 62.834 50.6504 62.834Z" fill="#B7EBD3"/>
<path d="M71.8702 50.4675C71.8702 52.5582 67.7649 53.9679 67.1527 55.8527C66.5195 57.8061 68.9891 61.3593 67.8071 62.9854C66.6145 64.6274 62.4617 63.3709 60.8206 64.564C59.1953 65.7467 59.1162 70.0918 57.1637 70.7254C55.2799 71.3378 52.6732 67.8902 50.5835 67.8902C48.4939 67.8902 45.8872 71.3378 44.0034 70.7254C42.0509 70.0918 41.9718 65.7467 40.3465 64.564C38.7054 63.3709 34.5526 64.6274 33.36 62.9854C32.178 61.3593 34.6476 57.8061 34.0143 55.8527C33.4022 53.9679 29.2969 52.5529 29.2969 50.4675C29.2969 48.382 33.4022 46.9671 34.0143 45.0823C34.6476 43.1288 32.178 39.5756 33.36 37.9495C34.5526 36.3076 38.7054 37.5641 40.3465 36.3709C41.9718 35.1883 42.0509 30.8432 44.0034 30.2096C45.8872 29.5972 48.4939 33.0448 50.5835 33.0448C52.6732 33.0448 55.2799 29.5972 57.1637 30.2096C59.1162 30.8432 59.1953 35.1883 60.8206 36.3709C62.4617 37.5641 66.6145 36.3076 67.8071 37.9495C68.9891 39.5756 66.5195 43.1288 67.1527 45.0823C67.7596 46.9618 71.8702 48.3768 71.8702 50.4675Z" stroke="white" stroke-width="2.5" stroke-miterlimit="10"/>
<path d="M50.25 71.6183L59.1731 92.0134C59.7694 93.3756 61.6163 93.5287 62.0753 92.2563L63.5476 87.3621C63.8325 86.5649 64.7507 86.2534 65.5739 86.6758L70.381 89.3948C71.695 90.0653 72.9403 88.8774 72.3493 87.5205L61.9804 63.8203" stroke="white" stroke-width="2.5" stroke-miterlimit="10"/>
<path d="M51.7384 68.2182L41.3272 92.0134C40.731 93.3756 38.8841 93.5287 38.425 92.2563L36.9528 87.3621C36.6678 86.5649 35.7497 86.2534 34.9265 86.6758L30.1193 89.3948C28.8054 90.0653 27.56 88.8774 28.151 87.5205L38.5253 63.8203" stroke="white" stroke-width="2.5" stroke-miterlimit="10"/>
</svg>
